<?xml version="1.0" encoding="UTF-8"?>
<!DOCTYPE svg PUBLIC "-//W3C//DTD SVG 1.1//EN" "http://www.w3.org/Graphics/SVG/1.1/DTD/svg11.dtd">
<!-- Creator: CorelDRAW -->
<svg xmlns="http://www.w3.org/2000/svg" xml:space="preserve" width="40px" height="40px" version="1.1" style="shape-rendering:geometricPrecision; text-rendering:geometricPrecision; image-rendering:optimizeQuality; fill-rule:evenodd; clip-rule:evenodd"
viewBox="0 0 16900 16900"
 xmlns:xlink="http://www.w3.org/1999/xlink"
 xmlns:xodm="http://www.corel.com/coreldraw/odm/2003">
 <defs>
  <style type="text/css">
   <![CDATA[
    .fil1 {fill:#FEFEFE}
    .fil0 {fill:#52B5EB}
   ]]>
  </style>
 </defs>
 <g id="Warstwa_x0020_1">
  <metadata id="CorelCorpID_0Corel-Layer"/>
  <g id="_2771237452576">
   <circle class="fil0" cx="8500" cy="8500" r="8500"/>
   <g>
    <path class="fil1" d="M12400 7000l0 3600c0,400 -400,800 -800,800l-6300 0c-400,0 -800,-400 -800,-800l0 -3600 4000 2900 3900 -2900z"/>
    <path class="fil1" d="M5300 5500l5400 0 900 0c200,0 300,100 400,100 200,100 300,300 300,500l-700 500 -3100 2300 -3900 -2800c0,-100 0,-200 0,-200 200,-200 400,-400 700,-400z"/>
   </g>
  </g>
 </g>
</svg>
