<?xml version="1.0" encoding="UTF-8"?>
<!DOCTYPE svg PUBLIC "-//W3C//DTD SVG 1.1//EN" "http://www.w3.org/Graphics/SVG/1.1/DTD/svg11.dtd">
<!-- Creator: CorelDRAW -->
<svg xmlns="http://www.w3.org/2000/svg" xml:space="preserve" width="302px" height="302px" version="1.1" style="shape-rendering:geometricPrecision; text-rendering:geometricPrecision; image-rendering:optimizeQuality; fill-rule:evenodd; clip-rule:evenodd"
viewBox="0 0 377700 377700"
 xmlns:xlink="http://www.w3.org/1999/xlink"
 xmlns:xodm="http://www.corel.com/coreldraw/odm/2003">
 <defs>
  <style type="text/css">
   <![CDATA[
    .str0 {stroke:#52B5EB;stroke-width:2700;stroke-miterlimit:22.9256}
    .fil1 {fill:none}
    .fil0 {fill:#52B5EB}
   ]]>
  </style>
 </defs>
 <g id="Warstwa_x0020_1">
  <metadata id="CorelCorpID_0Corel-Layer"/>
  <path class="fil0" d="M110600 185900l-900 0c-2500,0 -5100,0 -7600,-300 -2600,-300 -5200,-800 -7700,-1800 -3200,-1200 -5800,-3300 -7300,-6500 -1700,-3700 -2100,-8300 -2100,-12400l0 -45700c0,-1600 1300,-3000 2900,-3000l11600 0c1600,0 2900,1400 2900,3000l0 47000c0,2100 200,4900 1400,6800 1300,1900 4100,2200 6300,2200l500 0c1600,0 2900,1300 2900,2900l0 4900c0,1600 -1300,2900 -2900,2900zm171600 -20400l0 0c5800,0 10600,4700 10600,10600l0 0c0,5800 -4800,10600 -10600,10600l0 0c-5900,0 -10700,-4800 -10700,-10600l0 0c0,-5900 4800,-10600 10700,-10600zm-145500 -10800l33300 0c-100,-3400 -2800,-6700 -5500,-8500 -3200,-2300 -7300,-3100 -11100,-3100 -3800,100 -8000,800 -11000,3100 -2600,1900 -5400,5100 -5700,8500zm91100 -9000c-4200,400 -8300,1800 -11200,4900 -3000,3200 -4000,7400 -3600,11700 800,9400 9400,13800 18200,13100 4500,-300 8700,-2000 11500,-5500 2400,-3000 3500,-6900 3100,-10700 -300,-3800 -2100,-7400 -5100,-9900 -3600,-3100 -8300,-4000 -12900,-3600zm-91100 19200c0,5300 4000,9000 8600,10900 4900,2000 11100,2300 16100,500 1700,-600 3400,-1400 4700,-2700 500,-500 900,-1100 1300,-1700 700,-800 1600,-1200 2600,-1200l11800 0c1200,0 2300,700 2900,1800 500,1100 400,2400 -300,3400 -3200,4200 -8300,7700 -13200,9400 -7500,2700 -16900,3300 -24700,2400 -8200,-1000 -17500,-3900 -22800,-10600 -5000,-6300 -6200,-16700 -4300,-24400 1900,-7900 6500,-13100 13900,-16500 13000,-5900 37300,-5400 47600,5700 5100,5600 6800,12100 7200,19500 0,900 -300,1800 -900,2400 -700,700 -1400,1000 -2400,1000l-48100 100zm109100 14800l0 0c-500,400 -1300,1300 -1800,1800 -1300,1100 -2600,2100 -4100,3000 -2400,1400 -5200,2300 -7900,2900 -6000,1200 -13500,700 -19300,-1200 -11600,-3900 -17800,-12800 -17900,-25100 -200,-20100 17800,-30500 36300,-27500 3700,600 7700,1800 10800,4100 900,600 1600,1200 2300,1900 200,200 800,900 1100,1100l0 -21200c0,-900 300,-1700 900,-2300 700,-600 1500,-1000 2400,-1000l11100 100c1800,0 3200,1500 3200,3200l0 63300c0,900 -300,1700 -900,2300 -700,700 -1400,1000 -2300,1000l-10600 -100c-1800,0 -3200,-1400 -3200,-3200l-100 -3100zm11000 46500c-100,-1400 300,-3500 700,-4800 300,-1400 900,-2700 1600,-4000 1300,-2500 3300,-4400 5700,-5800 5000,-3000 13100,-3100 18400,-700 5600,2500 8600,7400 9300,13400 400,3400 200,6900 200,10300 0,1800 0,3600 0,5400 100,1000 100,2100 0,3100 0,600 100,1400 0,2000 -100,800 -800,1400 -1600,1400l-1700 0c-800,0 -1500,-600 -1600,-1400 -100,-300 -100,-800 -100,-1200 0,-700 0,-1400 0,-2100 0,-1900 0,-3900 0,-5900 0,-2000 0,-4000 0,-6000 0,-1100 100,-2300 0,-3500 -100,-4200 -1900,-8400 -5600,-10600 -3800,-2100 -9600,-2300 -13600,-500 -1800,800 -3300,2000 -4400,3600 -1000,1400 -2100,4000 -2200,5800 -100,1600 -200,3300 -200,4900 0,2700 0,5400 100,8000 0,1600 0,3200 0,4700 -100,900 0,1900 -100,2700 -100,700 -500,1200 -1200,1400 -600,200 -1700,200 -2400,100 -700,-100 -1200,-600 -1400,-1300 -100,-600 -100,-1300 -100,-1900 0,-900 0,-1900 0,-2800 0,-1700 100,-3300 100,-4900 0,-1600 -100,-3100 -100,-4600 0,-1100 0,-2100 100,-3100 0,-500 0,-1100 100,-1700zm-86600 8000c1100,0 2500,-200 3100,1000 300,400 300,800 300,1200 0,300 100,500 200,800 1800,6100 11900,6500 16400,3700 1400,-900 2500,-2400 2900,-4100 300,-1300 100,-2800 -900,-3800 -900,-1100 -2800,-1500 -4100,-1800 -2200,-400 -4500,-600 -6800,-900 -4600,-600 -10100,-1700 -11500,-6900 -1400,-4800 1000,-9800 5300,-12200 5700,-3200 15200,-2600 19600,2500 1500,1700 2700,4500 2500,6800 -100,800 -800,1500 -1600,1500 -1200,0 -2600,200 -3200,-1100 -200,-400 -200,-700 -200,-1100 0,-300 -100,-600 -200,-900 -200,-800 -500,-1400 -1000,-2000 -1500,-2000 -4700,-2700 -7000,-2800 -2600,-100 -5900,400 -7800,2300 -2100,1900 -2700,6100 300,7700 1500,800 3700,1100 5400,1400 2300,300 4700,400 7000,900 5200,900 9400,3200 9300,9200 0,5300 -3300,8900 -8100,10600 -4300,1500 -9600,1500 -13800,-100 -1900,-700 -4000,-2100 -5300,-3700 -1300,-1700 -2700,-4600 -2400,-6800 100,-800 800,-1400 1600,-1400zm33200 10600l0 -33100c0,-500 100,-900 400,-1200 400,-300 700,-400 1200,-400l1700 0c900,0 1600,700 1600,1600l0 33100c0,900 -600,1600 -1500,1600l-300 100c-100,0 -100,0 -100,0l-1100 0c0,0 0,0 0,0l-400 0c-900,-100 -1500,-800 -1500,-1700zm1500 -46600c1900,-500 3800,500 4300,2500 500,1800 -500,3700 -2400,4200 -1900,600 -3800,-500 -4300,-2400 -500,-1900 500,-3700 2400,-4300zm42200 42900c-3700,4300 -8900,6200 -14800,6200 -6000,0 -11600,-2400 -15300,-7200 -3500,-4400 -4600,-10200 -3600,-15700 700,-3600 2200,-6700 4800,-9400 4800,-5100 12700,-6800 19400,-5200 8200,1900 13300,8200 14200,16500 100,800 100,1700 200,2500 0,1300 0,2600 0,3800 0,2300 -100,4500 -100,6800 0,4300 100,7900 -1600,11900 -3200,7700 -10500,10300 -18300,10200 -5700,-200 -11200,-2000 -14800,-6600 -900,-1200 -2200,-3500 -2500,-4900 0,-500 100,-900 400,-1300 300,-400 800,-600 1200,-600l1800 0c600,0 1100,300 1400,800 200,500 400,1000 600,1400 200,400 500,700 700,1100 1300,2000 3400,3500 5700,4300 3600,1200 8600,1300 12200,100 3900,-1400 6300,-3800 7400,-7700 700,-2200 900,-4600 1000,-7000zm-29000 -12800c0,4100 1400,7900 4500,10600 2700,2400 6400,3600 9900,3600 3600,0 7300,-1200 10000,-3600 3100,-2700 4500,-6500 4500,-10600 0,-4100 -1300,-7900 -4500,-10700 -2700,-2400 -6300,-3500 -10000,-3500 -3600,0 -7200,1100 -9900,3500 -3200,2800 -4500,6600 -4500,10700zm-99200 -13100l0 -18000c0,-500 100,-800 500,-1200 300,-300 700,-400 1100,-400l1800 0c800,0 1500,700 1500,1600l0 30600c0,9400 -5000,16700 -14300,19000 -5900,1400 -12700,200 -17500,-3600 -9500,-7300 -9300,-22900 200,-30100 5100,-3800 11600,-4700 17700,-3200 2700,700 5100,2000 7300,3700 600,500 1200,1000 1700,1600zm-16400 -1000c-4000,600 -6800,1800 -9400,4900 -2600,3000 -3300,7200 -3000,11100 300,3500 2200,7100 5000,9200 3000,2400 6900,3400 10700,3000 3800,-300 7500,-1900 10000,-4900 4700,-5800 4000,-15700 -2000,-20400 -3100,-2400 -7400,-3500 -11300,-2900zm29900 15800c100,1300 500,2800 800,3700 600,1400 1300,2700 2300,3900 2900,3500 7700,5100 12200,4900 4800,-300 9100,-2600 11600,-6800 200,-300 400,-700 600,-1100 400,-500 800,-700 1400,-700l1800 0c500,0 900,200 1200,600 300,300 400,700 400,1200 -100,900 -1100,2600 -1700,3400 -2000,2900 -4100,4700 -7300,6300 -4300,2100 -10500,2400 -15100,1000 -4700,-1300 -8600,-4300 -11000,-8600 -2300,-4300 -2900,-9200 -1900,-13900 1000,-4500 3500,-8400 7300,-11100 4100,-2900 9100,-4000 14100,-3500 4500,500 9100,2500 12200,5900 3100,3500 5100,8600 4800,13300 0,900 -700,1500 -1600,1500l-32100 0zm100 -4800l28400 0c-300,-1300 -900,-3000 -1200,-3600 -4100,-8500 -16300,-9800 -23100,-3900 -1100,1000 -2200,2500 -2800,3900 -400,700 -1000,2300 -1300,3600z"/>
  <path class="fil1 str0" d="M40300 1400l297100 0c21400,0 39000,17500 39000,38900l0 297100c0,21500 -17600,39000 -39000,39000l-297100 0c-21400,0 -38900,-17500 -38900,-39000l0 -297100c0,-21400 17500,-38900 38900,-38900z"/>
 </g>
</svg>
