<?xml version="1.0" encoding="UTF-8"?>
<!DOCTYPE svg PUBLIC "-//W3C//DTD SVG 1.1//EN" "http://www.w3.org/Graphics/SVG/1.1/DTD/svg11.dtd">
<!-- Creator: CorelDRAW -->
<svg xmlns="http://www.w3.org/2000/svg" xml:space="preserve" width="40px" height="40px" version="1.1" style="shape-rendering:geometricPrecision; text-rendering:geometricPrecision; image-rendering:optimizeQuality; fill-rule:evenodd; clip-rule:evenodd"
viewBox="0 0 16900 16900"
 xmlns:xlink="http://www.w3.org/1999/xlink"
 xmlns:xodm="http://www.corel.com/coreldraw/odm/2003">
 <defs>
  <style type="text/css">
   <![CDATA[
    .fil1 {fill:#FEFEFE}
    .fil0 {fill:#52B5EB}
   ]]>
  </style>
 </defs>
 <g id="Warstwa_x0020_1">
  <metadata id="CorelCorpID_0Corel-Layer"/>
  <g id="_2771237447872">
   <circle class="fil0" cx="8500" cy="8500" r="8500"/>
   <path class="fil1" d="M5700 3900c-200,0 -500,400 -700,500 -200,300 -400,400 -600,700 -100,100 -400,300 -500,700 0,400 100,700 200,1100 400,1500 1400,2700 2400,3700 900,900 2400,2000 3800,2300 1100,100 1200,-100 1700,-700l900 -900c100,-100 100,-300 0,-400 -100,-200 -1200,-800 -1500,-1000 -200,-100 -500,-400 -800,-400 -200,100 -300,100 -400,200 -600,600 -500,700 -1100,400 -600,-300 -1000,-600 -1400,-1000 -200,-300 -400,-400 -600,-700 -100,-100 -700,-1000 -500,-1200 200,-300 800,-600 600,-1100 -100,-300 -300,-600 -400,-800 -200,-300 -300,-600 -500,-800 -100,-300 -200,-700 -600,-600z"/>
  </g>
 </g>
</svg>
